2200 0 1 0           
15 SolidWorks 2015 12 ACIS 22.0 NT 24 Sat Mar 10 09:53:30 2018 
1 9.9999999999999995e-007 1e-010 
-0 body $1 -1 -1 $-1 $2 $-1 $-1 F #
-1 name_attrib-gen-attrib $-1 -1 $-1 $-1 $0 2 1 1 1 1 1 1 1 1 1 1 1 1 1 0 1 1 1 @5 heat3 #
-2 lump $3 -1 -1 $-1 $-1 $4 $0 F #
-3 rgb_color-st-attrib $-1 -1 $-1 $-1 $2 2 1 2 1 1 1 1 1 1 1 1 1 1 1 0 1 1 1 0.53725490196078429 0.34901960784313724 0.33725490196078434 #
-4 shell $-1 -1 -1 $-1 $-1 $-1 $5 $-1 $2 F #
-5 face $6 -1 -1 $-1 $7 $8 $4 $-1 $9 reversed single F F #
-6 integer_attrib-name_attrib-gen-attrib $-1 -1 $-1 $-1 $5 2 1 2 1 1 1 1 1 1 1 1 1 1 1 0 1 1 1 @7 Fillet1 0 #
-7 face $10 -1 -1 $-1 $11 $12 $4 $-1 $13 reversed single F F #
-8 loop $-1 -1 -1 $-1 $-1 $14 $5 F unknown #
-9 plane-surface $-1 -1 -1 $-1 -7.5628500000000001 0 15.1257 1 0 0 0 0 -1000 forward_v I I I I #
-10 integer_attrib-name_attrib-gen-attrib $-1 -1 $-1 $-1 $7 2 1 2 1 1 1 1 1 1 1 1 1 1 1 0 1 1 1 @7 Fillet1 0 #
-11 face $15 -1 -1 $-1 $16 $17 $4 $-1 $18 reversed single F F #
-12 loop $-1 -1 -1 $-1 $-1 $19 $7 F unknown #
-13 plane-surface $-1 -1 -1 $-1 -7.5628500000000001 0 15.1257 0 1 0 0 0 1000 forward_v I I I I #
-14 coedge $-1 -1 -1 $-1 $20 $21 $22 $23 forward $8 $-1 #
-15 integer_attrib-name_attrib-gen-attrib $-1 -1 $-1 $-1 $11 2 1 2 1 1 1 1 1 1 1 1 1 1 1 0 1 1 1 @7 Fillet1 0 #
-16 face $24 -1 -1 $-1 $25 $26 $4 $-1 $27 reversed single F F #
-17 loop $-1 -1 -1 $-1 $-1 $28 $11 F unknown #
-18 plane-surface $-1 -1 -1 $-1 7.5628500000000001 0 15.1257 -1 0 0 0 0 1000 forward_v I I I I #
-19 coedge $-1 -1 -1 $-1 $29 $30 $21 $31 forward $12 $-1 #
-20 coedge $-1 -1 -1 $-1 $32 $14 $33 $34 forward $8 $-1 #
-21 coedge $-1 -1 -1 $-1 $14 $32 $19 $31 reversed $8 $-1 #
-22 coedge $-1 -1 -1 $-1 $35 $36 $14 $23 reversed $37 $-1 #
-23 edge $-1 -1 -1 $-1 $38 0 $39 0.00031750000000000018 $14 $40 forward @7 unknown F #
-24 integer_attrib-name_attrib-gen-attrib $-1 -1 $-1 $-1 $16 2 1 2 1 1 1 1 1 1 1 1 1 1 1 0 1 1 1 @7 Fillet1 0 #
-25 face $41 -1 -1 $-1 $42 $43 $4 $-1 $44 reversed single F F #
-26 loop $-1 -1 -1 $-1 $-1 $45 $16 F unknown #
-27 plane-surface $-1 -1 -1 $-1 -7.5628500000000001 0.95250000000000024 15.1257 0 -1 0 0 0 -1000 forward_v I I I I #
-28 coedge $-1 -1 -1 $-1 $46 $47 $48 $49 forward $17 $-1 #
-29 coedge $-1 -1 -1 $-1 $50 $19 $51 $52 forward $12 $-1 #
-30 coedge $-1 -1 -1 $-1 $19 $53 $35 $54 forward $12 $-1 #
-31 edge $-1 -1 -1 $-1 $38 0.0012699999999999996 $55 0.013855699999999997 $19 $56 forward @7 unknown F #
-32 coedge $-1 -1 -1 $-1 $21 $20 $57 $58 forward $8 $-1 #
-33 coedge $-1 -1 -1 $-1 $59 $60 $20 $34 reversed $61 $62 #
-34 edge $-1 -1 -1 $-1 $39 0 $63 1 $20 $64 forward @7 unknown F #
-35 coedge $-1 -1 -1 $-1 $65 $22 $30 $54 reversed $37 $-1 #
-36 tcoedge-coedge $-1 -1 -1 $-1 $22 $65 $66 $67 forward $37 $68 0 1 F #
-37 loop $-1 -1 -1 $-1 $-1 $65 $69 F unknown #
-38 vertex $-1 -1 -1 $-1 $54 $70 #
-39 tvertex-vertex $-1 -1 -1 $-1 $67 $71 8.8991145241087413e-016 #
-40 straight-curve $-1 -1 -1 $-1 -7.5628500000000001 0 13.855700000000001 0 1000 0 I I #
-41 integer_attrib-name_attrib-gen-attrib $-1 -1 $-1 $-1 $25 2 1 2 1 1 1 1 1 1 1 1 1 1 1 0 1 1 1 @7 Fillet1 0 #
-42 face $72 -1 -1 $-1 $73 $74 $4 $-1 $75 forward single F F #
-43 loop $-1 -1 -1 $-1 $-1 $76 $25 F unknown #
-44 plane-surface $-1 -1 -1 $-1 0 0 15.1257 0 0 -1 -1000 0 0 forward_v I I I I #
-45 coedge $-1 -1 -1 $-1 $77 $78 $79 $80 forward $26 $-1 #
-46 coedge $-1 -1 -1 $-1 $81 $28 $82 $83 forward $17 $-1 #
-47 coedge $-1 -1 -1 $-1 $28 $81 $84 $85 forward $17 $-1 #
-48 coedge $-1 -1 -1 $-1 $86 $87 $28 $49 reversed $88 $-1 #
-49 edge $-1 -1 -1 $-1 $89 -0.00095250000000000022 $90 -0.00063500000000000004 $28 $91 forward @7 unknown F #
-50 coedge $-1 -1 -1 $-1 $92 $29 $93 $94 forward $12 $-1 #
-51 coedge $-1 -1 -1 $-1 $57 $95 $29 $52 reversed $96 $-1 #
-52 edge $-1 -1 -1 $-1 $55 1.5707963267948939 $97 3.1415926535897931 $29 $98 forward @7 unknown F #
-53 coedge $-1 -1 -1 $-1 $30 $99 $100 $101 reversed $12 $-1 #
-54 edge $-1 -1 -1 $-1 $102 0 $38 1.5707963267948966 $30 $103 forward @7 unknown F #
-55 vertex $-1 -1 -1 $-1 $58 $104 #
-56 straight-curve $-1 -1 -1 $-1 -7.5628500000000001 0 15.1257 -0 -0 -1000 I I #
-57 coedge $-1 -1 -1 $-1 $105 $51 $32 $58 reversed $96 $-1 #
-58 edge $-1 -1 -1 $-1 $63 -0.00031750000000000018 $55 0 $32 $106 forward @7 unknown F #
-59 coedge $-1 -1 -1 $-1 $107 $33 $108 $109 forward $61 $110 #
-60 coedge $-1 -1 -1 $-1 $33 $107 $111 $112 reversed $61 $113 #
-61 loop $-1 -1 -1 $-1 $-1 $59 $114 F unknown #
-62 pcurve $-1 -1 -1 $-1 0 forward { exppc nubs 1 open 2 
	-1 1 -0 1 
	0 0.013855699999999999 
	0 0.0012700000000000003 
	0.001 
	-1 
	spline forward { exactsur full nurbs 2 3 both open open none none 2 2 
	0 2 1 2 
	0.0012700000000000003 3 0.0138557 3 
	-7.5628500000000001 0.31750000000000017 13.855700000000001 1 
	-7.5628500000000001 0.95250000000000012 13.855700000000001 2.3333333333333304 
	-6.9278500000000003 0.95250000000000024 13.855700000000001 1 
	-7.5628500000000001 0.31750000000000017 9.660466666666677 1 
	-7.5628500000000001 0.95250000000000012 9.6604666666666823 2.3333333333333304 
	-6.9278500000000003 0.95250000000000024 9.660466666666677 1 
	-7.5628500000000001 0.31750000000000017 5.4652333333333303 1 
	-7.5628500000000001 0.95250000000000012 5.4652333333333232 2.3333333333333304 
	-6.9278500000000003 0.95250000000000024 5.4652333333333303 1 
	-7.5628500000000001 0.31750000000000017 1.2699999999999985 1 
	-7.5628500000000001 0.95250000000000012 1.2699999999999985 2.3333333333333304 
	-6.9278500000000003 0.95250000000000024 1.2699999999999985 1 
	0 
	0 
	0 
	0 
	0 
	0 
	0 
	F 1 F 0 F 1 F 0 } I I I I 
	} 0 0 #
-63 tvertex-vertex $-1 -1 -1 $-1 $34 $115 2.3914935841127266e-015 #
-64 intcurve-curve $-1 -1 -1 $-1 forward { exactcur full nubs 3 open 2 
	0 3 1 3 
	-7.5628500000000001 0.31750000000000017 13.855700000000001 
	-7.5628500000000001 0.31750000000000006 9.6604666666666663 
	-7.5628500000000001 0.31750000000000006 5.4652333333333321 
	-7.5628500000000001 0.31750000000000017 1.2700000000000002 
	0 
	null_surface 
	null_surface 
	nullbs 
	nullbs 
	-1 
	-1 
	I I 
	0 
	0 
	0 
	
	-1 
	none F F 1 F 0 } I I #
-65 coedge $-1 -1 -1 $-1 $36 $35 $116 $117 reversed $37 $-1 #
-66 tcoedge-coedge $-1 -1 -1 $-1 $118 $108 $36 $67 reversed $119 $120 -1 -0 F #
-67 tedge-edge $-1 -1 -1 $-1 $121 0 $39 1 $36 $122 forward @7 unknown F 7.845146636657139e-005 #
-68 pcurve $-1 -1 -1 $-1 0 forward { exppc nubs 1 open 2 
	0 1 1 1 
	-0.25000000000000011 -3.1415926535897931 
	-0.25000000000000011 -1.5707963267948966 
	0.001 
	-1 
	cone -6.2928500000000005 0 13.855700000000001 0 -1 0 0 0 -1.2700000000000002 1 I I 0 1 1.2700000000000002 forward I I I I 
	} 0 0 #
-69 face $123 -1 -1 $-1 $124 $37 $4 $-1 $125 forward single F F #
-70 point $-1 -1 -1 $-1 -7.5628500000000001 0 13.855700000000001 #
-71 point $-1 -1 -1 $-1 -7.5628500000000001 0.31750000000000017 13.855700000000001 #
-72 integer_attrib-name_attrib-gen-attrib $-1 -1 $-1 $-1 $42 2 1 2 1 1 1 1 1 1 1 1 1 1 1 0 1 1 1 @7 Fillet1 0 #
-73 face $126 -1 -1 $-1 $69 $96 $4 $-1 $127 forward single F F #
-74 loop $-1 -1 -1 $-1 $-1 $128 $42 F unknown #
-75 plane-surface $-1 -1 -1 $-1 0 0 0 0 0 -1 -1000 0 0 forward_v I I I I #
-76 coedge $-1 -1 -1 $-1 $129 $100 $130 $131 forward $43 $-1 #
-77 tcoedge-coedge $-1 -1 -1 $-1 $132 $45 $133 $134 forward $26 $135 0 1 F #
-78 tcoedge-coedge $-1 -1 -1 $-1 $45 $136 $137 $138 forward $26 $139 0 1 F #
-79 coedge $-1 -1 -1 $-1 $140 $141 $45 $80 reversed $142 $143 #
-80 edge $-1 -1 -1 $-1 $144 0 $145 1 $45 $146 forward @7 unknown F #
-81 coedge $-1 -1 -1 $-1 $47 $46 $147 $148 forward $17 $-1 #
-82 coedge $-1 -1 -1 $-1 $141 $140 $46 $83 reversed $142 $149 #
-83 edge $-1 -1 -1 $-1 $90 0 $150 1 $46 $151 forward @7 unknown F #
-84 coedge $-1 -1 -1 $-1 $99 $92 $47 $85 reversed $12 $-1 #
-85 edge $-1 -1 -1 $-1 $152 0.0012699999999999996 $89 0.013855699999999997 $47 $153 forward @7 unknown F #
-86 coedge $-1 -1 -1 $-1 $154 $48 $92 $155 reversed $88 $-1 #
-87 tcoedge-coedge $-1 -1 -1 $-1 $48 $154 $156 $157 forward $88 $158 0 1 F #
-88 loop $-1 -1 -1 $-1 $-1 $154 $159 F unknown #
-89 vertex $-1 -1 -1 $-1 $155 $160 #
-90 tvertex-vertex $-1 -1 -1 $-1 $161 $162 8.8817841970012523e-016 #
-91 straight-curve $-1 -1 -1 $-1 7.5628500000000001 0.95250000000000024 1.2700000000000002 0 1000 0 I I #
-92 coedge $-1 -1 -1 $-1 $84 $50 $86 $155 forward $12 $-1 #
-93 coedge $-1 -1 -1 $-1 $128 $163 $50 $94 reversed $74 $-1 #
-94 edge $-1 -1 -1 $-1 $97 0.0012699999999999996 $164 0.013855699999999999 $50 $165 forward @7 unknown F #
-95 coedge $-1 -1 -1 $-1 $51 $105 $128 $166 reversed $96 $-1 #
-96 loop $-1 -1 -1 $-1 $-1 $57 $73 F unknown #
-97 vertex $-1 -1 -1 $-1 $52 $167 #
-98 ellipse-curve $-1 -1 -1 $-1 -6.2928500000000005 0 1.2700000000000002 -0 -1 -0 0 0 1.2700000000000002 1 I I #
-99 coedge $-1 -1 -1 $-1 $53 $84 $168 $169 forward $12 $-1 #
-100 coedge $-1 -1 -1 $-1 $76 $116 $53 $101 forward $43 $-1 #
-101 edge $-1 -1 -1 $-1 $102 0.0012699999999999996 $170 0.013855699999999999 $100 $171 forward @7 unknown F #
-102 vertex $-1 -1 -1 $-1 $117 $172 #
-103 ellipse-curve $-1 -1 -1 $-1 -6.2928500000000005 0 13.855700000000001 -0 -1 -0 0 0 1.2700000000000002 1 I I #
-104 point $-1 -1 -1 $-1 -7.5628500000000001 0 1.2700000000000038 #
-105 tcoedge-coedge $-1 -1 -1 $-1 $95 $57 $173 $174 forward $96 $175 0 1 F #
-106 straight-curve $-1 -1 -1 $-1 -7.5628500000000001 0 1.2700000000000002 0 -1000 0 I I #
-107 coedge $-1 -1 -1 $-1 $60 $59 $176 $177 reversed $61 $178 #
-108 coedge $-1 -1 -1 $-1 $66 $179 $59 $109 reversed $119 $180 #
-109 edge $-1 -1 -1 $-1 $39 0 $181 1 $59 $182 forward @7 unknown F #
-110 pcurve $-1 -1 -1 $-1 0 forward { exppc nubs 1 open 2 
	0 1 1 1 
	0 0.0012700000000000003 
	1 0.0012700000000000003 
	0.001 
	-1 
	spline forward { ref 1 } I I I I 
	} 0 0 #
-111 coedge $-1 -1 -1 $-1 $183 $173 $60 $112 forward $184 $185 #
-112 edge $-1 -1 -1 $-1 $63 0 $186 1 $111 $187 forward @7 unknown F #
-113 pcurve $-1 -1 -1 $-1 0 forward { exppc nubs 1 open 2 
	-1 1 -0 1 
	1 0.0138557 
	0 0.013855699999999999 
	0.001 
	-1 
	spline forward { ref 1 } I I I I 
	} 0 0 #
-114 face $188 -1 -1 $-1 $189 $61 $4 $-1 $190 forward single F F #
-115 point $-1 -1 -1 $-1 -7.5628500000000001 0.31750000000000017 1.2700000000000002 #
-116 coedge $-1 -1 -1 $-1 $100 $129 $65 $117 forward $43 $-1 #
-117 edge $-1 -1 -1 $-1 $121 -0.00031750000000000018 $102 0 $116 $191 forward @7 unknown F #
-118 coedge $-1 -1 -1 $-1 $179 $66 $192 $193 reversed $119 $194 #
-119 loop $-1 -1 -1 $-1 $-1 $108 $195 F unknown #
-120 pcurve $-1 -1 -1 $-1 0 forward { exppc nubs 1 open 2 
	-1 1 -0 1 
	0 4.7123889803846897 
	5.6198015869664994e-017 3.1415926535897922 
	0.001 
	-1 
	spline forward { exactsur full nurbs 2 3 both open open none none 2 5 
	0 2 1 2 
	3.1415926535897918 3 3.5342917352885159 2 3.9269908169872405 2 4.3196898986859651 2 4.7123889803846897 3 
	-6.2928499999999987 0.31750000000000017 15.1257 1 
	-6.2928499999999987 0.95250000000000012 15.1257 2.3333333333333304 
	-6.2928499999999996 0.95250000000000024 14.4907 1 
	-6.4591225366633775 0.31750000000000017 15.1257 1 
	-6.4591225366632479 0.95250000000000012 15.125699999837899 2.3333333333333304 
	-6.3759862683316131 0.95250000000000024 14.490699999918949 1 
	-6.6252698766195 0.31750000000000017 15.092645273073153 1 
	-6.6252698766194751 0.95249999999993917 15.092645273073185 2.3333333333333304 
	-6.4590599383097569 0.95250000000000035 14.474172636536593 1 
	-6.9324460415878253 0.31750000000000017 14.965408739505518 1 
	-6.9324460415878475 0.95250000000006541 14.965408739505488 2.3333333333333304 
	-6.6126480207939062 0.95250000000000035 14.410554369752743 1 
	-7.0733243829560992 0.31750000000000017 14.871276841257735 1 
	-7.0733243829560637 0.95250000000003188 14.8712768412577 2.3333333333333304 
	-6.6830871914780321 0.95250000000000035 14.363488420628849 1 
	-7.3084268412577327 0.31750000000000017 14.636174382956101 1 
	-7.3084268412577682 0.95249999999996871 14.636174382956137 2.3333333333333304 
	-6.8006384206288857 0.95250000000000035 14.245937191478069 1 
	-7.4025587395055261 0.31750000000000017 14.495296041587805 1 
	-7.4025587395055927 0.95250000000002277 14.495296041587746 2.3333333333333304 
	-6.8477043697527789 0.95250000000000024 14.17549802079391 1 
	-7.529795273073141 0.31750000000000017 14.188119876619531 1 
	-7.5297952730730744 0.9524999999999777 14.18811987661959 2.3333333333333304 
	-6.9113226365365561 0.95250000000000024 14.02190993830976 1 
	-7.562850000000001 0.31750000000000017 14.021972536663364 1 
	-7.5628499998376109 0.95249999999985679 14.021972536663164 2.3333333333333304 
	-6.9278499999188066 0.95250000000000024 13.938836268331617 1 
	-7.562850000000001 0.31750000000000017 13.855700000000001 1 
	-7.5628500000000001 0.95250000000000112 13.855700000000001 2.3333333333333304 
	-6.9278500000000012 0.95250000000000024 13.855700000000001 1 
	0 
	0 
	0 
	0 
	0 
	2 3.5342917352885159 4.3196898986859651 
	1 3.9269908169872405 
	F 1 F 0 F 1 F 0 } I I I I 
	} 0 0 #
-121 tvertex-vertex $-1 -1 -1 $-1 $196 $197 5.6184305780604379e-015 #
-122 intcurve-curve $-1 -1 -1 $-1 forward { exactcur full nubs 3 open 5 
	0 3 0.25 2 0.5 2 0.75 2 1 3 
	-6.2928500000000005 0.31750000000000017 15.1257 
	-6.4590926112524585 0.31750000000000012 15.125700000000002 
	-6.6252698131362875 0.31750000000000023 15.092645299368767 
	-6.9324461050710404 0.31750000000000017 14.965408713209907 
	-7.0733243343681425 0.31750000000000017 14.871276889845687 
	-7.3084268898456903 0.31750000000000012 14.636174334368141 
	-7.402558713209908 0.31750000000000017 14.495296105071045 
	-7.5297952993687618 0.31750000000000023 14.188119813136288 
	-7.562850000000001 0.31750000000000017 14.021942611252461 
	-7.5628500000000001 0.31750000000000017 13.855700000000001 
	0 
	null_surface 
	null_surface 
	nullbs 
	nullbs 
	-1 
	-1 
	I I 
	0 
	0 
	3 0.25 0.5 0.75 
	
	-1 
	none F F 1 F 0 } I I #
-123 integer_attrib-name_attrib-gen-attrib $-1 -1 $-1 $-1 $69 2 1 2 1 1 1 1 1 1 1 1 1 1 1 0 1 1 1 @7 Fillet1 0 #
-124 face $198 -1 -1 $-1 $159 $199 $4 $-1 $200 forward single F F #
-125 cone-surface $-1 -1 -1 $-1 -6.2928500000000005 0 13.855700000000001 0 -1 0 0 0 -1.2700000000000002 1 I I 0 1 1.2700000000000002 forward I I I I #
-126 integer_attrib-name_attrib-gen-attrib $-1 -1 $-1 $-1 $73 2 1 2 1 1 1 1 1 1 1 1 1 1 1 0 1 1 1 @7 Fillet1 0 #
-127 cone-surface $-1 -1 -1 $-1 -6.2928500000000005 0 1.2700000000000002 0 1 0 0 0 1.2700000000000002 1 I I 0 1 1.2700000000000002 forward I I I I #
-128 coedge $-1 -1 -1 $-1 $201 $93 $95 $166 forward $74 $-1 #
-129 coedge $-1 -1 -1 $-1 $116 $76 $202 $196 forward $43 $-1 #
-130 coedge $-1 -1 -1 $-1 $168 $203 $76 $131 reversed $199 $-1 #
-131 edge $-1 -1 -1 $-1 $170 0 $204 0.00031750000000000018 $76 $205 forward @7 unknown F #
-132 coedge $-1 -1 -1 $-1 $206 $77 $207 $208 forward $26 $-1 #
-133 tcoedge-coedge $-1 -1 -1 $-1 $209 $210 $77 $134 reversed $211 $212 -1 -0 F #
-134 tedge-edge $-1 -1 -1 $-1 $145 0 $213 1 $77 $214 forward @7 unknown F 0.00020993948897808559 #
-135 pcurve $-1 -1 -1 $-1 0 forward { exppc nubs 3 open 3 
	0 3 0.5 2 1 3 
	0.013855700000000002 0.0144907 
	0.014023733124807709 0.014490699999835894 
	0.014186040429038482 0.014423181124523326 
	0.014423385183068432 0.014186244487583594 
	0.014490699999835197 0.014024490375897251 
	0.0144907 0.013855700000000004 
	0 
	0 
	plane -7.5628500000000001 0.95250000000000024 15.1257 -0 1 -0 0 0 -1000 reverse_v I I I I 
	} 0 0 #
-136 coedge $-1 -1 -1 $-1 $78 $215 $216 $217 forward $26 $-1 #
-137 tcoedge-coedge $-1 -1 -1 $-1 $218 $219 $78 $138 reversed $220 $221 -1 -0 F #
-138 tedge-edge $-1 -1 -1 $-1 $222 0 $144 1 $78 $223 forward @7 unknown F 0.00020993948885166867 #
-139 pcurve $-1 -1 -1 $-1 0 forward { exppc nubs 3 open 3 
	0 3 0.5 2 1 3 
	0.00063500000000000015 0.013855699999999999 
	0.00063500000016381876 0.014023733124807668 
	0.00070251887547648217 0.014186040429038291 
	0.00093945551241660097 0.014423385183068621 
	0.0011012096241029157 0.014490699999835155 
	0.0012700000000000003 0.014490700000000002 
	0 
	0 
	plane -7.5628500000000001 0.95250000000000024 15.1257 -0 1 -0 0 0 -1000 reverse_v I I I I 
	} 0 0 #
-140 coedge $-1 -1 -1 $-1 $82 $79 $219 $224 forward $142 $225 #
-141 coedge $-1 -1 -1 $-1 $79 $82 $209 $161 reversed $142 $226 #
-142 loop $-1 -1 -1 $-1 $-1 $140 $227 F unknown #
-143 pcurve $-1 -1 -1 $-1 0 forward { exppc nubs 1 open 2 
	-1 1 -0 1 
	0 0.0138557 
	0 0.0012700000000000038 
	0.001 
	-1 
	spline forward { exactsur full nurbs 2 3 both open open none none 2 2 
	0 2 1 2 
	0.0012700000000000003 3 0.0138557 3 
	6.9278500000000003 0.95250000000000024 13.855700000000001 1 
	7.5628500000000001 0.95250000000000012 13.855700000000001 2.3333333333333304 
	7.5628500000000001 0.31750000000000017 13.855700000000001 1 
	6.9278500000000003 0.95250000000000024 9.660466666666677 1 
	7.5628500000000001 0.95250000000000012 9.6604666666666823 2.3333333333333304 
	7.5628500000000001 0.31750000000000017 9.660466666666677 1 
	6.9278500000000003 0.95250000000000024 5.4652333333333303 1 
	7.5628500000000001 0.95250000000000012 5.4652333333333232 2.3333333333333304 
	7.5628500000000001 0.31750000000000017 5.4652333333333303 1 
	6.9278500000000003 0.95250000000000024 1.2699999999999985 1 
	7.5628500000000001 0.95250000000000012 1.2699999999999985 2.3333333333333304 
	7.5628500000000001 0.31750000000000017 1.2699999999999985 1 
	0 
	0 
	0 
	0 
	0 
	0 
	0 
	F 1 F 0 F 1 F 0 } I I I I 
	} 0 0 #
-144 tvertex-vertex $-1 -1 -1 $-1 $138 $228 8.8817841970012523e-016 #
-145 tvertex-vertex $-1 -1 -1 $-1 $80 $229 9.9301366129890925e-016 #
-146 intcurve-curve $-1 -1 -1 $-1 forward { exactcur full nubs 3 open 2 
	0 3 1 3 
	6.9278500000000021 0.95250000000000024 13.855700000000001 
	6.9278500000000003 0.95250000000000024 9.6604666666666663 
	6.9278500000000003 0.95250000000000024 5.4652333333333321 
	6.9278500000000003 0.95250000000000024 1.2699999999999985 
	0 
	null_surface 
	null_surface 
	nullbs 
	nullbs 
	-1 
	-1 
	I I 
	0 
	0 
	0 
	
	-1 
	none F F 1 F 0 } I I #
-147 coedge $-1 -1 -1 $-1 $203 $168 $81 $148 reversed $199 $-1 #
-148 edge $-1 -1 -1 $-1 $150 -0.00031750000000000018 $152 -0 $81 $230 forward @7 unknown F #
-149 pcurve $-1 -1 -1 $-1 0 forward { exppc nubs 1 open 2 
	-1 1 -0 1 
	1 0.0012700000000000003 
	1 0.013855699999999999 
	0.001 
	-1 
	spline forward { ref 12 } I I I I 
	} 0 0 #
-150 tvertex-vertex $-1 -1 -1 $-1 $83 $231 8.8991145241087413e-016 #
-151 intcurve-curve $-1 -1 -1 $-1 forward { exactcur full nubs 3 open 2 
	0 3 1 3 
	7.5628500000000001 0.31750000000000017 1.2700000000000002 
	7.5628500000000001 0.31750000000000006 5.4652333333333321 
	7.5628500000000001 0.31750000000000006 9.6604666666666663 
	7.5628500000000001 0.31750000000000017 13.855700000000001 
	0 
	null_surface 
	null_surface 
	nullbs 
	nullbs 
	-1 
	-1 
	I I 
	0 
	0 
	0 
	
	-1 
	none F F 1 F 0 } I I #
-152 vertex $-1 -1 -1 $-1 $148 $232 #
-153 straight-curve $-1 -1 -1 $-1 7.5628500000000001 0 15.1257 -0 -0 -1000 I I #
-154 coedge $-1 -1 -1 $-1 $87 $86 $163 $233 reversed $88 $-1 #
-155 edge $-1 -1 -1 $-1 $164 -3.1415926535897931 $89 -1.5707963267948917 $92 $234 forward @7 unknown F #
-156 tcoedge-coedge $-1 -1 -1 $-1 $210 $209 $87 $157 reversed $211 $235 -1 -0 F #
-157 tedge-edge $-1 -1 -1 $-1 $236 0 $90 1 $87 $237 forward @7 unknown F 7.8451466363712173e-005 #
-158 pcurve $-1 -1 -1 $-1 0 forward { exppc nubs 1 open 2 
	0 1 1 1 
	-0.25000000000000011 0 
	-0.25000000000000011 1.5707963267948966 
	0.001 
	-1 
	cone 6.2928500000000005 0 1.2700000000000002 0 -1 0 0 0 -1.27 1 I I 0 1 1.27 forward I I I I 
	} 0 0 #
-159 face $238 -1 -1 $-1 $195 $88 $4 $-1 $239 forward single F F #
-160 point $-1 -1 -1 $-1 7.5628500000000001 0 1.2700000000000038 #
-161 edge $-1 -1 -1 $-1 $145 0 $90 1 $209 $240 forward @7 unknown F #
-162 point $-1 -1 -1 $-1 7.5628500000000001 0.31750000000000017 1.2700000000000002 #
-163 coedge $-1 -1 -1 $-1 $93 $201 $154 $233 forward $74 $-1 #
-164 vertex $-1 -1 -1 $-1 $233 $241 #
-165 straight-curve $-1 -1 -1 $-1 -7.5628500000000001 0 0 1000 0 0 I I #
-166 edge $-1 -1 -1 $-1 $97 -0.00095250000000000022 $242 -0.00063500000000000004 $128 $243 forward @7 unknown F #
-167 point $-1 -1 -1 $-1 -6.2928500000000005 0 0 #
-168 coedge $-1 -1 -1 $-1 $147 $130 $99 $169 reversed $199 $-1 #
-169 edge $-1 -1 -1 $-1 $152 -1.5707963267948966 $170 2.0980592591341543e-015 $99 $244 forward @7 unknown F #
-170 vertex $-1 -1 -1 $-1 $169 $245 #
-171 straight-curve $-1 -1 -1 $-1 -7.5628500000000001 0 15.1257 1000 0 0 I I #
-172 point $-1 -1 -1 $-1 -6.2928500000000005 0 15.1257 #
-173 tcoedge-coedge $-1 -1 -1 $-1 $111 $246 $105 $174 reversed $184 $247 -1 -0 F #
-174 tedge-edge $-1 -1 -1 $-1 $63 0 $242 1 $105 $248 forward @7 unknown F 7.8451466364106633e-005 #
-175 pcurve $-1 -1 -1 $-1 0 forward { exppc nubs 1 open 2 
	0 1 1 1 
	0.25000000000000011 -1.5707963267948966 
	0.25000000000000011 -3.1415926535897931 
	0.001 
	-1 
	cone -6.2928500000000005 0 1.2700000000000002 0 1 0 0 0 1.2700000000000002 1 I I 0 1 1.2700000000000002 forward I I I I 
	} 0 0 #
-176 coedge $-1 -1 -1 $-1 $215 $206 $107 $177 forward $26 $-1 #
-177 edge $-1 -1 -1 $-1 $186 0 $181 1 $176 $249 forward @7 unknown F #
-178 pcurve $-1 -1 -1 $-1 0 forward { exppc nubs 1 open 2 
	-1 1 -0 1 
	1 0.0012700000000000003 
	1 0.0138557 
	0.001 
	-1 
	spline forward { ref 1 } I I I I 
	} 0 0 #
-179 tcoedge-coedge $-1 -1 -1 $-1 $108 $118 $215 $250 reversed $119 $251 -1 -0 F #
-180 pcurve $-1 -1 -1 $-1 0 forward { exppc nubs 1 open 2 
	-1 1 -0 1 
	1 4.7123889803846897 
	0 4.7123889803846897 
	0.001 
	-1 
	spline forward { ref 7 } I I I I 
	} 0 0 #
-181 tvertex-vertex $-1 -1 -1 $-1 $177 $252 8.8817841970012523e-016 #
-182 intcurve-curve $-1 -1 -1 $-1 forward { exactcur full nurbs 2 open 2 
	0 2 1 2 
	-7.5628500000000001 0.31750000000000017 13.855700000000001 1 
	-7.5628500000000001 0.95250000000000012 13.855700000000001 2.3333333333333304 
	-6.9278500000000003 0.95250000000000024 13.855700000000001 1 
	0 
	null_surface 
	null_surface 
	nullbs 
	nullbs 
	-1 
	-1 
	I I 
	0 
	0 
	0 
	
	-1 
	none F F 1 F 0 } I I #
-183 tcoedge-coedge $-1 -1 -1 $-1 $246 $111 $206 $253 reversed $184 $254 -1 -0 F #
-184 loop $-1 -1 -1 $-1 $-1 $111 $255 F unknown #
-185 pcurve $-1 -1 -1 $-1 0 forward { exppc nubs 1 open 2 
	0 1 1 1 
	0 -1.5707963267948948 
	1 -1.5707963267948937 
	0.001 
	-1 
	spline forward { exactsur full nurbs 2 3 both open open none none 2 5 
	0 2 1 2 
	-1.5707963267948948 3 -1.1780972450961711 2 -0.78539816339744739 2 -0.3926990816987237 2 0 3 
	-7.562850000000001 0.31750000000000017 1.269999999999998 1 
	-7.5628500000000001 0.95250000000000112 1.269999999999998 2.3333333333333304 
	-6.9278500000000012 0.95250000000000024 1.2699999999999991 1 
	-7.562850000000001 0.31750000000000017 1.1037274633366319 1 
	-7.5628499998376109 0.95249999999985679 1.1037274633367917 2.3333333333333304 
	-6.9278499999188066 0.95250000000000024 1.1868637316683981 1 
	-7.5297952730731446 0.31750000000000017 0.93758012338048058 1 
	-7.5297952730731739 0.95250000000000012 0.93758012338046848 2.3333333333333304 
	-6.9113226365365872 0.95250000000000024 1.1037900616902323 1 
	-7.4025587395055243 0.31750000000000017 0.63040395841219143 1 
	-7.402558739505495 0.95250000000000012 0.63040395841220331 2.3333333333333304 
	-6.8477043697527478 0.95250000000000024 0.95020197920610416 1 
	-7.3084268412577389 0.31750000000000017 0.48952561704390729 1 
	-7.3084268412577504 0.95249999999997337 0.48952561704391528 2.3333333333333304 
	-6.8006384206288759 0.95250000000000024 0.87976280852194222 1 
	-7.0733243829560912 0.31750000000000017 0.25442315874226062 1 
	-7.0733243829560797 0.95250000000002721 0.25442315874225258 2.3333333333333304 
	-6.6830871914780401 0.95250000000000024 0.76221157937114226 1 
	-6.9324460415878653 0.31750000000000017 0.16029126049449924 1 
	-6.9324460415878724 0.95250000000000923 0.16029126049448977 2.3333333333333304 
	-6.6126480207939355 0.95250000000000024 0.71514563024723599 1 
	-6.6252698766194662 0.31750000000000017 0.033054726926832867 1 
	-6.62526987661946 0.95249999999999124 0.033054726926842574 2.3333333333333304 
	-6.4590599383097311 0.95250000000000024 0.65152736346343032 1 
	-6.459122536663406 0.31750000000000017 2.1684043449710089e-016 1 
	-6.4591225366632621 0.95250000000000012 1.6234497379336151e-010 2.3333333333333304 
	-6.37598626833163 0.95250000000000024 0.63500000008117263 1 
	-6.2928500000000005 0.31750000000000017 2.1684043449710089e-016 1 
	-6.2928500000000014 0.95250000000000012 2.1684043449710089e-016 2.3333333333333304 
	-6.2928500000000005 0.95250000000000024 0.63500000000000023 1 
	0 
	0 
	0 
	0 
	0 
	2 -1.1780972450961711 -0.3926990816987237 
	1 -0.78539816339744739 
	F 1 F 0 F 1 F 0 } I I I I 
	} 0 0 #
-186 tvertex-vertex $-1 -1 -1 $-1 $253 $256 6.6613381477509392e-016 #
-187 intcurve-curve $-1 -1 -1 $-1 forward { exactcur full nurbs 2 open 2 
	0 2 1 2 
	-7.5628500000000001 0.31750000000000017 1.2700000000000002 1 
	-7.5628500000000001 0.95250000000000112 1.269999999999998 2.3333333333333304 
	-6.9278500000000012 0.95250000000000024 1.2699999999999985 1 
	0 
	null_surface 
	null_surface 
	nullbs 
	nullbs 
	-1 
	-1 
	I I 
	0 
	0 
	0 
	
	-1 
	none F F 1 F 0 } I I #
-188 integer_attrib-name_attrib-gen-attrib $-1 -1 $-1 $-1 $114 2 1 2 1 1 1 1 1 1 1 1 1 1 1 0 1 1 1 @7 Fillet1 0 #
-189 face $257 -1 -1 $-1 $255 $220 $4 $-1 $258 forward single F F #
-190 spline-surface $-1 -1 -1 $-1 forward { ref 1 } I I I I #
-191 straight-curve $-1 -1 -1 $-1 -6.2928500000000005 0 15.1257 0 -1000 0 I I #
-192 coedge $-1 -1 -1 $-1 $202 $216 $118 $193 forward $259 $260 #
-193 edge $-1 -1 -1 $-1 $261 0 $121 1 $192 $262 forward @7 unknown F #
-194 pcurve $-1 -1 -1 $-1 0 forward { exppc nubs 1 open 2 
	-1 1 -0 1 
	5.6198015869664994e-017 3.1415926535897922 
	1 3.1415926535897918 
	0.001 
	-1 
	spline forward { ref 7 } I I I I 
	} 0 0 #
-195 face $263 -1 -1 $-1 $264 $119 $4 $-1 $265 forward single F F #
-196 edge $-1 -1 -1 $-1 $204 0 $121 1 $129 $266 forward @7 unknown F #
-197 point $-1 -1 -1 $-1 -6.2928500000000005 0.31750000000000017 15.1257 #
-198 integer_attrib-name_attrib-gen-attrib $-1 -1 $-1 $-1 $124 2 1 2 1 1 1 1 1 1 1 1 1 1 1 0 1 1 1 @7 Fillet1 0 #
-199 loop $-1 -1 -1 $-1 $-1 $147 $124 F unknown #
-200 cone-surface $-1 -1 -1 $-1 6.2928500000000005 0 13.855700000000001 0 1 0 0 0 1.2700000000000002 1 I I 0 1 1.2700000000000002 forward I I I I #
-201 coedge $-1 -1 -1 $-1 $163 $128 $267 $268 forward $74 $-1 #
-202 coedge $-1 -1 -1 $-1 $269 $192 $129 $196 reversed $259 $270 #
-203 tcoedge-coedge $-1 -1 -1 $-1 $130 $147 $271 $272 forward $199 $273 0 1 F #
-204 tvertex-vertex $-1 -1 -1 $-1 $272 $274 5.6184305780604379e-015 #
-205 straight-curve $-1 -1 -1 $-1 6.2928500000000005 0 15.1257 0 1000 0 I I #
-206 tcoedge-coedge $-1 -1 -1 $-1 $176 $132 $183 $253 forward $26 $275 0 1 F #
-207 coedge $-1 -1 -1 $-1 $276 $277 $132 $208 reversed $278 $279 #
-208 edge $-1 -1 -1 $-1 $213 0 $280 1 $132 $281 forward @7 unknown F #
-209 coedge $-1 -1 -1 $-1 $156 $133 $141 $161 forward $211 $282 #
-210 coedge $-1 -1 -1 $-1 $133 $156 $276 $283 forward $211 $284 #
-211 loop $-1 -1 -1 $-1 $-1 $209 $285 F unknown #
-212 pcurve $-1 -1 -1 $-1 0 forward { exppc nubs 1 open 2 
	-1 1 -0 1 
	1 4.1953633089418549e-015 
	1 1.5707963267948946 
	0.001 
	-1 
	spline forward { exactsur full nurbs 2 3 both open open none none 2 5 
	0 2 1 2 
	0 3 0.39269908169872414 2 0.78539816339744828 2 1.1780972450961724 2 1.5707963267948966 3 
	6.2928500000000005 0.31750000000000017 2.1684043449710089e-016 1 
	6.2928500000000014 0.95250000000000012 2.1684043449710089e-016 2.3333333333333304 
	6.2928500000000005 0.95250000000000024 0.63500000000000023 1 
	6.4591225366634095 0.31750000000000017 2.1684043449710089e-016 1 
	6.4591225366632621 0.95250000000000012 1.6234497379336151e-010 2.3333333333333304 
	6.37598626833163 0.95250000000000024 0.63500000008117263 1 
	6.6252698766194644 0.31750000000000017 0.033054726926832138 1 
	6.62526987661946 0.95249999999999568 0.033054726926837974 2.3333333333333304 
	6.4590599383097302 0.95250000000000024 0.65152736346342577 1 
	6.932446041587867 0.31750000000000017 0.16029126049450002 1 
	6.9324460415878724 0.95250000000000479 0.16029126049449438 2.3333333333333304 
	6.6126480207939364 0.95250000000000024 0.71514563024724054 1 
	7.0733243829561339 0.31750000000000017 0.25442315874230181 1 
	7.0733243829561525 0.95250000000003177 0.25442315874226473 2.3333333333333304 
	6.6830871914780774 0.95250000000000024 0.7622115793711336 1 
	7.3084268412576998 0.31750000000000017 0.48952561704386804 1 
	7.3084268412576803 0.95249999999996871 0.48952561704390524 2.3333333333333304 
	6.8006384206288404 0.95250000000000024 0.87976280852195154 1 
	7.4025587395055137 0.31750000000000017 0.63040395841216113 1 
	7.4025587395054959 0.95249999999999546 0.63040395841216801 2.333333333333329 
	6.8477043697527487 0.95250000000000012 0.95020197920608629 1 
	7.5297952730731597 0.31750000000000017 0.93758012338051233 1 
	7.5297952730731765 0.95250000000000457 0.93758012338050534 2.333333333333329 
	6.9113226365365881 0.95250000000000012 1.1037900616902505 1 
	7.562850000000001 0.31750000000000017 1.1037274633366108 1 
	7.5628499998376109 0.95249999999985679 1.1037274633367669 2.3333333333333304 
	6.9278499999188066 0.95250000000000024 1.1868637316683848 1 
	7.562850000000001 0.31750000000000017 1.2700000000000002 1 
	7.5628500000000001 0.95250000000000112 1.2700000000000002 2.3333333333333304 
	6.9278500000000012 0.95250000000000024 1.2700000000000002 1 
	0 
	0 
	0 
	0 
	0 
	2 0.39269908169872414 1.1780972450961724 
	1 0.78539816339744828 
	F 1 F 0 F 1 F 0 } I I I I 
	} 0 0 #
-213 tvertex-vertex $-1 -1 -1 $-1 $283 $286 9.4857496805350942e-016 #
-214 intcurve-curve $-1 -1 -1 $-1 forward { exactcur full nubs 3 open 3 
	0 3 0.5 2 1 3 
	6.9278500000000003 0.95250000000000024 1.2699999999999985 
	6.9278499998358933 0.95250000000000012 1.1019668751922922 
	6.8603311245233245 0.95250000000000046 0.93965957096151853 
	6.6233944875835933 0.95250000000000024 0.70231481693156816 
	6.4616403758972512 0.95250000000000024 0.6350000001648034 
	6.2928500000000032 0.95250000000000024 0.63500000000000012 
	0 
	null_surface 
	null_surface 
	nullbs 
	nullbs 
	-1 
	-1 
	I I 
	0 
	1 0.5 
	0 
	
	-1 
	none F F 1 F 0 } I I #
-215 tcoedge-coedge $-1 -1 -1 $-1 $136 $176 $179 $250 forward $26 $287 0 1 F #
-216 coedge $-1 -1 -1 $-1 $192 $269 $136 $217 reversed $259 $288 #
-217 edge $-1 -1 -1 $-1 $261 0 $222 1 $136 $289 forward @7 unknown F #
-218 coedge $-1 -1 -1 $-1 $271 $137 $269 $290 forward $220 $291 #
-219 coedge $-1 -1 -1 $-1 $137 $271 $140 $224 reversed $220 $292 #
-220 loop $-1 -1 -1 $-1 $-1 $218 $189 F unknown #
-221 pcurve $-1 -1 -1 $-1 0 forward { exppc nubs 1 open 2 
	-1 1 -0 1 
	1 1.5707963267948966 
	1 3.1415926535897931 
	0.001 
	-1 
	spline forward { exactsur full nurbs 2 3 both open open none none 2 5 
	0 2 1 2 
	1.5707963267948966 3 1.9634954084936207 2 2.3561944901923448 2 2.748893571891069 2 3.1415926535897931 3 
	7.562850000000001 0.31750000000000017 13.855700000000001 1 
	7.5628500000000001 0.95250000000000112 13.855700000000001 2.3333333333333304 
	6.9278500000000012 0.95250000000000024 13.855700000000001 1 
	7.562850000000001 0.31750000000000017 14.021972536663453 1 
	7.5628499998376109 0.95249999999985679 14.02197253666332 2.3333333333333304 
	6.9278499999188066 0.95250000000000024 13.938836268331656 1 
	7.5297952730731952 0.31750000000000017 14.188119876619401 1 
	7.5297952730731739 0.95249999999999591 14.188119876619391 2.3333333333333317 
	6.9113226365365872 0.95250000000000035 14.021909938309696 1 
	7.4025587395054746 0.31750000000000017 14.495296041587929 1 
	7.402558739505495 0.95250000000000501 14.49529604158794 2.3333333333333317 
	6.8477043697527478 0.95250000000000035 14.175498020793968 1 
	7.3084268412577318 0.31750000000000017 14.636174382956101 1 
	7.3084268412577673 0.95249999999997326 14.636174382956137 2.3333333333333304 
	6.8006384206288848 0.95250000000000024 14.245937191478069 1 
	7.0733243829560983 0.31750000000000017 14.871276841257735 1 
	7.0733243829560637 0.95250000000002721 14.8712768412577 2.3333333333333304 
	6.6830871914780312 0.95250000000000024 14.363488420628849 1 
	6.9324460415878297 0.31750000000000017 14.965408739505513 1 
	6.9324460415878892 0.95250000000005886 14.965408739505484 2.333333333333329 
	6.6126480207939089 0.95250000000000024 14.410554369752742 1 
	6.6252698766195053 0.31750000000000017 15.092645273073151 1 
	6.6252698766194449 0.95249999999994184 15.092645273073181 2.333333333333329 
	6.4590599383097596 0.95250000000000024 14.474172636536592 1 
	6.459122536663382 0.31750000000000017 15.1257 1 
	6.4591225366632772 0.95250000000001367 15.125699999837899 2.3333333333333304 
	6.3759862683316131 0.95250000000000024 14.490699999918949 1 
	6.2928499999999987 0.31750000000000017 15.1257 1 
	6.2928499999999987 0.95250000000000012 15.1257 2.3333333333333304 
	6.2928499999999996 0.95250000000000024 14.4907 1 
	0 
	0 
	0 
	0 
	0 
	2 1.9634954084936207 2.748893571891069 
	1 2.3561944901923448 
	F 1 F 0 F 1 F 0 } I I I I 
	} 0 0 #
-222 tvertex-vertex $-1 -1 -1 $-1 $217 $293 1.7763568394002505e-015 #
-223 intcurve-curve $-1 -1 -1 $-1 forward { exactcur full nubs 3 open 3 
	0 3 0.5 2 1 3 
	6.2928499999999978 0.95250000000000024 14.4907 
	6.4608831248076672 0.95250000000000012 14.490699999836181 
	6.6231904290382912 0.95250000000000046 14.423181124523518 
	6.8605351830686212 0.95250000000000024 14.1862444875834 
	6.9278499998351544 0.95250000000000024 14.024490375897084 
	6.9278500000000021 0.95250000000000024 13.855700000000001 
	0 
	null_surface 
	null_surface 
	nullbs 
	nullbs 
	-1 
	-1 
	I I 
	0 
	1 0.5 
	0 
	
	-1 
	none F F 1 F 0 } I I #
-224 edge $-1 -1 -1 $-1 $144 0 $150 1 $140 $294 forward @7 unknown F #
-225 pcurve $-1 -1 -1 $-1 0 forward { exppc nubs 1 open 2 
	0 1 1 1 
	0 0.0012700000000000038 
	1 0.0012700000000000003 
	0.001 
	-1 
	spline forward { ref 12 } I I I I 
	} 0 0 #
-226 pcurve $-1 -1 -1 $-1 0 forward { exppc nubs 1 open 2 
	-1 1 -0 1 
	1 0.013855699999999999 
	0 0.0138557 
	0.001 
	-1 
	spline forward { ref 12 } I I I I 
	} 0 0 #
-227 face $295 -1 -1 $-1 $296 $142 $4 $-1 $297 forward single F F #
-228 point $-1 -1 -1 $-1 6.9278500000000021 0.95250000000000024 13.855700000000001 #
-229 point $-1 -1 -1 $-1 6.9278500000000003 0.95250000000000024 1.2699999999999985 #
-230 straight-curve $-1 -1 -1 $-1 7.5628500000000001 0 13.855700000000001 -0 -1000 -0 I I #
-231 point $-1 -1 -1 $-1 7.5628500000000001 0.31750000000000017 13.855700000000001 #
-232 point $-1 -1 -1 $-1 7.5628500000000001 0 13.855700000000001 #
-233 edge $-1 -1 -1 $-1 $236 -0.00031750000000000018 $164 0 $163 $298 forward @7 unknown F #
-234 ellipse-curve $-1 -1 -1 $-1 6.2928500000000005 0 1.2700000000000002 -0 -1 -0 2.6020852139652106e-015 0 1.2700000000000002 1 I I #
-235 pcurve $-1 -1 -1 $-1 0 forward { exppc nubs 1 open 2 
	-1 1 -0 1 
	0 1.5707963267948966 
	0 0 
	0.001 
	-1 
	spline forward { ref 26 } I I I I 
	} 0 0 #
-236 tvertex-vertex $-1 -1 -1 $-1 $268 $299 2.2204460492503131e-016 #
-237 intcurve-curve $-1 -1 -1 $-1 forward { exactcur full nubs 3 open 5 
	0 3 0.25 2 0.5 2 0.75 2 1 3 
	6.2928500000000005 0.31750000000000017 0 
	6.4590926112524603 0.31750000000000012 2.2488724749601669e-016 
	6.6252698131362875 0.31750000000000023 0.033054700631239331 
	6.9324461050710431 0.31750000000000017 0.16029128679009255 
	7.0733243343681442 0.31750000000000017 0.2544231101543114 
	7.3084268898456894 0.31750000000000012 0.48952566563185812 
	7.4025587132099089 0.31750000000000017 0.63040389492895799 
	7.5297952993687618 0.31750000000000023 0.93758018686371447 
	7.562850000000001 0.31750000000000017 1.1037573887475405 
	7.5628500000000001 0.31750000000000017 1.2700000000000002 
	0 
	null_surface 
	null_surface 
	nullbs 
	nullbs 
	-1 
	-1 
	I I 
	0 
	0 
	3 0.25 0.5 0.75 
	
	-1 
	none F F 1 F 0 } I I #
-238 integer_attrib-name_attrib-gen-attrib $-1 -1 $-1 $-1 $159 2 1 2 1 1 1 1 1 1 1 1 1 1 1 0 1 1 1 @7 Fillet1 0 #
-239 cone-surface $-1 -1 -1 $-1 6.2928500000000005 0 1.2700000000000002 0 -1 0 0 0 -1.27 1 I I 0 1 1.27 forward I I I I #
-240 intcurve-curve $-1 -1 -1 $-1 forward { exactcur full nurbs 2 open 2 
	0 2 1 2 
	6.9278500000000003 0.95250000000000024 1.2699999999999985 1 
	7.5628500000000001 0.95250000000000112 1.2700000000000002 2.3333333333333304 
	7.5628500000000001 0.31750000000000017 1.2700000000000002 1 
	0 
	null_surface 
	null_surface 
	nullbs 
	nullbs 
	-1 
	-1 
	I I 
	0 
	0 
	0 
	
	-1 
	none F F 1 F 0 } I I #
-241 point $-1 -1 -1 $-1 6.2928499999999978 0 0 #
-242 tvertex-vertex $-1 -1 -1 $-1 $174 $300 2.1684043449710089e-016 #
-243 straight-curve $-1 -1 -1 $-1 -6.2928500000000005 0.95250000000000024 0 0 1000 0 I I #
-244 ellipse-curve $-1 -1 -1 $-1 6.2928500000000005 0 13.855700000000001 -0 -1 -0 0 0 1.2700000000000002 1 I I #
-245 point $-1 -1 -1 $-1 6.2928499999999978 0 15.1257 #
-246 coedge $-1 -1 -1 $-1 $173 $183 $277 $301 reversed $184 $302 #
-247 pcurve $-1 -1 -1 $-1 0 forward { exppc nubs 1 open 2 
	-1 1 -0 1 
	0 0 
	0 -1.5707963267948948 
	0.001 
	-1 
	spline forward { ref 22 } I I I I 
	} 0 0 #
-248 intcurve-curve $-1 -1 -1 $-1 forward { exactcur full nubs 3 open 5 
	0 3 0.25 2 0.5 2 0.75 2 1 3 
	-7.5628500000000001 0.31750000000000017 1.2700000000000002 
	-7.562850000000001 0.31750000000000012 1.1037573887475383 
	-7.5297952993687618 0.31750000000000023 0.93758018686371236 
	-7.4025587132099071 0.31750000000000017 0.63040389492895643 
	-7.3084268898456894 0.31750000000000017 0.48952566563185723 
	-7.0733243343681433 0.31750000000000012 0.25442311015431079 
	-6.9324461050710431 0.31750000000000017 0.16029128679009219 
	-6.6252698131362875 0.31750000000000023 0.033054700631239262 
	-6.4590926112524611 0.31750000000000017 1.9735867671025198e-016 
	-6.2928500000000005 0.31750000000000017 0 
	0 
	null_surface 
	null_surface 
	nullbs 
	nullbs 
	-1 
	-1 
	I I 
	0 
	0 
	3 0.25 0.5 0.75 
	
	-1 
	none F F 1 F 0 } I I #
-249 intcurve-curve $-1 -1 -1 $-1 forward { exactcur full nubs 3 open 2 
	0 3 1 3 
	-6.9278500000000012 0.95250000000000024 1.2699999999999985 
	-6.9278500000000003 0.95250000000000024 5.4652333333333321 
	-6.9278500000000003 0.95250000000000024 9.6604666666666663 
	-6.9278500000000003 0.95250000000000024 13.855700000000001 
	0 
	null_surface 
	null_surface 
	nullbs 
	nullbs 
	-1 
	-1 
	I I 
	0 
	0 
	0 
	
	-1 
	none F F 1 F 0 } I I #
-250 tedge-edge $-1 -1 -1 $-1 $181 0 $261 1 $215 $303 forward @7 unknown F 0.00020993948886297939 #
-251 pcurve $-1 -1 -1 $-1 0 forward { exppc nubs 1 open 2 
	-1 1 -0 1 
	1 3.1415926535897918 
	1 4.7123889803846897 
	0.001 
	-1 
	spline forward { ref 7 } I I I I 
	} 0 0 #
-252 point $-1 -1 -1 $-1 -6.9278500000000003 0.95250000000000024 13.855700000000001 #
-253 tedge-edge $-1 -1 -1 $-1 $280 0 $186 1 $206 $304 forward @7 unknown F 0.00020993948910844518 #
-254 pcurve $-1 -1 -1 $-1 0 forward { exppc nubs 1 open 2 
	-1 1 -0 1 
	1 -1.5707963267948937 
	1 0 
	0.001 
	-1 
	spline forward { ref 22 } I I I I 
	} 0 0 #
-255 face $305 -1 -1 $-1 $227 $184 $4 $-1 $306 forward single F F #
-256 point $-1 -1 -1 $-1 -6.9278500000000012 0.95250000000000024 1.2699999999999985 #
-257 integer_attrib-name_attrib-gen-attrib $-1 -1 $-1 $-1 $189 2 1 2 1 1 1 1 1 1 1 1 1 1 1 0 1 1 1 @7 Fillet1 0 #
-258 spline-surface $-1 -1 -1 $-1 forward { ref 29 } I I I I #
-259 loop $-1 -1 -1 $-1 $-1 $192 $264 F unknown #
-260 pcurve $-1 -1 -1 $-1 0 forward { exppc nubs 1 open 2 
	0 1 1 1 
	1 0.0062928500000000009 
	0 0.0062928500000000009 
	0.001 
	-1 
	spline forward { exactsur full nurbs 2 3 both open open none none 2 2 
	0 2 1 2 
	-0.0062928499999999991 3 0.0062928500000000009 3 
	6.2928499999999987 0.31750000000000017 15.1257 1 
	6.2928499999999987 0.95250000000000012 15.1257 2.3333333333333304 
	6.2928499999999987 0.95250000000000024 14.4907 1 
	2.0976166666666654 0.31750000000000017 15.1257 1 
	2.0976166666666627 0.952499999999318 15.1257 2.3333333333333304 
	2.0976166666666654 0.95250000000000024 14.4907 1 
	-2.097616666666668 0.31750000000000017 15.1257 1 
	-2.0976166666666662 0.95250000000000012 15.1257 2.3333333333333304 
	-2.097616666666668 0.95250000000000024 14.4907 1 
	-6.2928499999999996 0.31750000000000017 15.1257 1 
	-6.2928499999999987 0.95250000000000012 15.1257 2.3333333333333304 
	-6.2928499999999996 0.95250000000000024 14.4907 1 
	0 
	0 
	0 
	0 
	0 
	0 
	0 
	F 1 F 0 F 1 F 0 } I I I I 
	} 0 0 #
-261 tvertex-vertex $-1 -1 -1 $-1 $250 $307 0 #
-262 intcurve-curve $-1 -1 -1 $-1 forward { exactcur full nurbs 2 open 2 
	0 2 1 2 
	-6.2928499999999996 0.95250000000000024 14.4907 1 
	-6.2928499999999987 0.95250000000000012 15.1257 2.3333333333333304 
	-6.2928500000000005 0.31750000000000017 15.1257 1 
	0 
	null_surface 
	null_surface 
	nullbs 
	nullbs 
	-1 
	-1 
	I I 
	0 
	0 
	0 
	
	-1 
	none F F 1 F 0 } I I #
-263 integer_attrib-name_attrib-gen-attrib $-1 -1 $-1 $-1 $195 2 1 2 1 1 1 1 1 1 1 1 1 1 1 0 1 1 1 @7 Fillet1 0 #
-264 face $308 -1 -1 $-1 $114 $259 $4 $-1 $309 forward single F F #
-265 spline-surface $-1 -1 -1 $-1 forward { ref 7 } I I I I #
-266 intcurve-curve $-1 -1 -1 $-1 forward { exactcur full nubs 3 open 2 
	0 3 1 3 
	6.2928500000000005 0.31750000000000017 15.1257 
	2.0976166666666662 0.31750000000000017 15.1257 
	-2.0976166666666671 0.31750000000000017 15.1257 
	-6.2928500000000005 0.31750000000000017 15.1257 
	0 
	null_surface 
	null_surface 
	nullbs 
	nullbs 
	-1 
	-1 
	I I 
	0 
	0 
	0 
	
	-1 
	none F F 1 F 0 } I I #
-267 coedge $-1 -1 -1 $-1 $277 $276 $201 $268 reversed $278 $310 #
-268 edge $-1 -1 -1 $-1 $242 0 $236 1 $201 $311 forward @7 unknown F #
-269 coedge $-1 -1 -1 $-1 $216 $202 $218 $290 reversed $259 $312 #
-270 pcurve $-1 -1 -1 $-1 0 forward { exppc nubs 1 open 2 
	-1 1 -0 1 
	0 0.0062928500000000009 
	0 -0.0062928499999999991 
	0.001 
	-1 
	spline forward { ref 42 } I I I I 
	} 0 0 #
-271 tcoedge-coedge $-1 -1 -1 $-1 $219 $218 $203 $272 reversed $220 $313 -1 -0 F #
-272 tedge-edge $-1 -1 -1 $-1 $150 0 $204 1 $203 $314 forward @7 unknown F 7.8451466364355904e-005 #
-273 pcurve $-1 -1 -1 $-1 0 forward { exppc nubs 1 open 2 
	0 1 1 1 
	0.25000000000000011 1.5707963267948966 
	0.25000000000000011 0 
	0.001 
	-1 
	cone 6.2928500000000005 0 13.855700000000001 0 1 0 0 0 1.2700000000000002 1 I I 0 1 1.2700000000000002 forward I I I I 
	} 0 0 #
-274 point $-1 -1 -1 $-1 6.2928500000000005 0.31750000000000017 15.1257 #
-275 pcurve $-1 -1 -1 $-1 0 forward { exppc nubs 3 open 3 
	0 3 0.5 2 1 3 
	0.0144907 0.0012699999999999994 
	0.014490699999835937 0.0011019668751923945 
	0.014423181124522901 0.00093965957096136307 
	0.014186244487584017 0.00070231481693172008 
	0.0140244903758973 0.00063500000016484745 
	0.013855700000000002 0.00063499999999999928 
	0 
	0 
	plane -7.5628500000000001 0.95250000000000024 15.1257 -0 1 -0 0 0 -1000 reverse_v I I I I 
	} 0 0 #
-276 coedge $-1 -1 -1 $-1 $267 $207 $210 $283 reversed $278 $315 #
-277 coedge $-1 -1 -1 $-1 $207 $267 $246 $301 forward $278 $316 #
-278 loop $-1 -1 -1 $-1 $-1 $277 $296 F unknown #
-279 pcurve $-1 -1 -1 $-1 0 forward { exppc nubs 1 open 2 
	-1 1 -0 1 
	1 0.0012699999999999994 
	1 0.013855700000000002 
	0.001 
	-1 
	spline forward { exactsur full nurbs 2 3 both open open none none 2 2 
	0 2 1 2 
	0.0012699999999999994 3 0.013855700000000002 3 
	-6.2928500000000005 0.31750000000000017 1.0842021724855044e-016 1 
	-6.2928500000000014 0.95250000000000012 1.0842021724855044e-016 2.3333333333333304 
	-6.2928500000000005 0.95250000000000024 0.63500000000000012 1 
	-2.0976166666666645 0.31750000000000017 1.0842021724855044e-016 1 
	-2.0976166666666645 0.95250000000000012 1.0842021724855044e-016 2.3333333333333304 
	-2.0976166666666645 0.95250000000000024 0.63500000000000012 1 
	2.0976166666666662 0.31750000000000017 1.0842021724855044e-016 1 
	2.0976166666666645 0.95250000000000012 1.0842021724855044e-016 2.3333333333333304 
	2.0976166666666662 0.95250000000000024 0.63500000000000012 1 
	6.2928500000000032 0.31750000000000017 1.0842021724855044e-016 1 
	6.2928500000000032 0.95250000000000012 1.0842021724855044e-016 2.3333333333333304 
	6.2928500000000032 0.95250000000000024 0.63500000000000012 1 
	0 
	0 
	0 
	0 
	0 
	0 
	0 
	F 1 F 0 F 1 F 0 } I I I I 
	} 0 0 #
-280 tvertex-vertex $-1 -1 -1 $-1 $208 $317 3.3306690738754696e-016 #
-281 intcurve-curve $-1 -1 -1 $-1 forward { exactcur full nubs 3 open 2 
	0 3 1 3 
	6.2928500000000032 0.95250000000000024 0.63500000000000012 
	2.0976166666666689 0.95250000000000024 0.63500000000000012 
	-2.0976166666666662 0.95250000000000024 0.63500000000000012 
	-6.2928500000000005 0.95250000000000024 0.63500000000000012 
	0 
	null_surface 
	null_surface 
	nullbs 
	nullbs 
	-1 
	-1 
	I I 
	0 
	0 
	0 
	
	-1 
	none F F 1 F 0 } I I #
-282 pcurve $-1 -1 -1 $-1 0 forward { exppc nubs 1 open 2 
	0 1 1 1 
	1 1.5707963267948946 
	0 1.5707963267948966 
	0.001 
	-1 
	spline forward { ref 26 } I I I I 
	} 0 0 #
-283 edge $-1 -1 -1 $-1 $236 0 $213 1 $210 $318 forward @7 unknown F #
-284 pcurve $-1 -1 -1 $-1 0 forward { exppc nubs 1 open 2 
	0 1 1 1 
	0 0 
	1 4.1953633089418549e-015 
	0.001 
	-1 
	spline forward { ref 26 } I I I I 
	} 0 0 #
-285 face $319 -1 -1 $-1 $-1 $211 $4 $-1 $320 forward single F F #
-286 point $-1 -1 -1 $-1 6.2928500000000032 0.95250000000000024 0.63500000000000012 #
-287 pcurve $-1 -1 -1 $-1 0 forward { exppc nubs 3 open 3 
	0 3 0.5 2 1 3 
	0.0012700000000000003 0.00063500000000000015 
	0.0011019668751922913 0.00063500000016410759 
	0.00093965957096188088 0.0007025188754761812 
	0.00070231481693120747 0.00093945551241690108 
	0.00063500000016455602 0.0011012096241037224 
	0.00063500000000000015 0.0012700000000000003 
	0 
	0 
	plane -7.5628500000000001 0.95250000000000024 15.1257 -0 1 -0 0 0 -1000 reverse_v I I I I 
	} 0 0 #
-288 pcurve $-1 -1 -1 $-1 0 forward { exppc nubs 1 open 2 
	-1 1 -0 1 
	1 -0.0062928499999999983 
	1 0.0062928500000000009 
	0.001 
	-1 
	spline forward { ref 42 } I I I I 
	} 0 0 #
-289 intcurve-curve $-1 -1 -1 $-1 forward { exactcur full nubs 3 open 2 
	0 3 1 3 
	-6.2928499999999996 0.95250000000000024 14.4907 
	-2.0976166666666671 0.95250000000000024 14.4907 
	2.0976166666666654 0.95250000000000024 14.4907 
	6.2928499999999978 0.95250000000000024 14.4907 
	0 
	null_surface 
	null_surface 
	nullbs 
	nullbs 
	-1 
	-1 
	I I 
	0 
	0 
	0 
	
	-1 
	none F F 1 F 0 } I I #
-290 edge $-1 -1 -1 $-1 $222 0 $204 1 $218 $321 forward @7 unknown F #
-291 pcurve $-1 -1 -1 $-1 0 forward { exppc nubs 1 open 2 
	0 1 1 1 
	1 3.1415926535897931 
	5.6198015869664994e-017 3.1415926535897927 
	0.001 
	-1 
	spline forward { ref 29 } I I I I 
	} 0 0 #
-292 pcurve $-1 -1 -1 $-1 0 forward { exppc nubs 1 open 2 
	-1 1 -0 1 
	0 1.5707963267948966 
	1 1.5707963267948966 
	0.001 
	-1 
	spline forward { ref 29 } I I I I 
	} 0 0 #
-293 point $-1 -1 -1 $-1 6.2928499999999978 0.95250000000000024 14.4907 #
-294 intcurve-curve $-1 -1 -1 $-1 forward { exactcur full nurbs 2 open 2 
	0 2 1 2 
	6.9278500000000021 0.95250000000000024 13.855700000000001 1 
	7.5628500000000001 0.95250000000000012 13.855700000000001 2.3333333333333304 
	7.5628500000000001 0.31750000000000017 13.855700000000001 1 
	0 
	null_surface 
	null_surface 
	nullbs 
	nullbs 
	-1 
	-1 
	I I 
	0 
	0 
	0 
	
	-1 
	none F F 1 F 0 } I I #
-295 integer_attrib-name_attrib-gen-attrib $-1 -1 $-1 $-1 $227 2 1 2 1 1 1 1 1 1 1 1 1 1 1 0 1 1 1 @7 Fillet1 0 #
-296 face $322 -1 -1 $-1 $285 $278 $4 $-1 $323 forward single F F #
-297 spline-surface $-1 -1 -1 $-1 forward { ref 12 } I I I I #
-298 straight-curve $-1 -1 -1 $-1 6.2928500000000005 0 0 0 -1000 0 I I #
-299 point $-1 -1 -1 $-1 6.2928500000000005 0.31750000000000017 0 #
-300 point $-1 -1 -1 $-1 -6.2928500000000005 0.31750000000000017 0 #
-301 edge $-1 -1 -1 $-1 $242 0 $280 1 $277 $324 forward @7 unknown F #
-302 pcurve $-1 -1 -1 $-1 0 forward { exppc nubs 1 open 2 
	-1 1 -0 1 
	1 0 
	0 0 
	0.001 
	-1 
	spline forward { ref 22 } I I I I 
	} 0 0 #
-303 intcurve-curve $-1 -1 -1 $-1 forward { exactcur full nubs 3 open 3 
	0 3 0.5 2 1 3 
	-6.9278500000000003 0.95250000000000024 13.855700000000001 
	-6.9278499998358924 0.95250000000000012 14.023733124807709 
	-6.8603311245238192 0.95250000000000046 14.186040429038119 
	-6.6233944875830995 0.95250000000000024 14.423385183068794 
	-6.4616403758962777 0.95250000000000024 14.490699999835444 
	-6.2928499999999996 0.95250000000000024 14.4907 
	0 
	null_surface 
	null_surface 
	nullbs 
	nullbs 
	-1 
	-1 
	I I 
	0 
	1 0.5 
	0 
	
	-1 
	none F F 1 F 0 } I I #
-304 intcurve-curve $-1 -1 -1 $-1 forward { exactcur full nubs 3 open 3 
	0 3 0.5 2 1 3 
	-6.2928500000000005 0.95250000000000024 0.63500000000000012 
	-6.460883124807606 0.95250000000000012 0.63500000016406311 
	-6.6231904290386368 0.95250000000000046 0.7025188754770999 
	-6.8605351830682801 0.95250000000000024 0.93945551241598335 
	-6.9278499998351526 0.95250000000000024 1.1012096241026998 
	-6.9278500000000012 0.95250000000000024 1.2699999999999985 
	0 
	null_surface 
	null_surface 
	nullbs 
	nullbs 
	-1 
	-1 
	I I 
	0 
	1 0.5 
	0 
	
	-1 
	none F F 1 F 0 } I I #
-305 integer_attrib-name_attrib-gen-attrib $-1 -1 $-1 $-1 $255 2 1 2 1 1 1 1 1 1 1 1 1 1 1 0 1 1 1 @7 Fillet1 0 #
-306 spline-surface $-1 -1 -1 $-1 forward { ref 22 } I I I I #
-307 point $-1 -1 -1 $-1 -6.2928499999999996 0.95250000000000024 14.4907 #
-308 integer_attrib-name_attrib-gen-attrib $-1 -1 $-1 $-1 $264 2 1 2 1 1 1 1 1 1 1 1 1 1 1 0 1 1 1 @7 Fillet1 0 #
-309 spline-surface $-1 -1 -1 $-1 forward { ref 42 } I I I I #
-310 pcurve $-1 -1 -1 $-1 0 forward { exppc nubs 1 open 2 
	-1 1 -0 1 
	0 0.013855699999999999 
	0 0.0012699999999999994 
	0.001 
	-1 
	spline forward { ref 49 } I I I I 
	} 0 0 #
-311 intcurve-curve $-1 -1 -1 $-1 forward { exactcur full nubs 3 open 2 
	0 3 1 3 
	-6.2928500000000005 0.31750000000000017 0 
	-2.0976166666666662 0.31750000000000017 0 
	2.0976166666666689 0.31750000000000017 0 
	6.2928500000000005 0.31750000000000017 0 
	0 
	null_surface 
	null_surface 
	nullbs 
	nullbs 
	-1 
	-1 
	I I 
	0 
	0 
	0 
	
	-1 
	none F F 1 F 0 } I I #
-312 pcurve $-1 -1 -1 $-1 0 forward { exppc nubs 1 open 2 
	-1 1 -0 1 
	0 -0.0062928499999999991 
	1 -0.0062928499999999983 
	0.001 
	-1 
	spline forward { ref 42 } I I I I 
	} 0 0 #
-313 pcurve $-1 -1 -1 $-1 0 forward { exppc nubs 1 open 2 
	-1 1 -0 1 
	5.6198015869664994e-017 3.1415926535897927 
	0 1.5707963267948966 
	0.001 
	-1 
	spline forward { ref 29 } I I I I 
	} 0 0 #
-314 intcurve-curve $-1 -1 -1 $-1 forward { exactcur full nubs 3 open 5 
	0 3 0.25 2 0.5 2 0.75 2 1 3 
	7.5628500000000001 0.31750000000000017 13.855700000000001 
	7.5628500000000001 0.31750000000000012 14.021942611252461 
	7.5297952993687627 0.31750000000000023 14.188119813136288 
	7.4025587132099071 0.31750000000000017 14.495296105071041 
	7.3084268898456903 0.31750000000000017 14.636174334368141 
	7.0733243343681425 0.31750000000000012 14.871276889845687 
	6.932446105071044 0.31750000000000017 14.965408713209909 
	6.6252698131362866 0.31750000000000023 15.09264529936876 
	6.4590926112524611 0.31750000000000017 15.125700000000004 
	6.2928500000000005 0.31750000000000017 15.1257 
	0 
	null_surface 
	null_surface 
	nullbs 
	nullbs 
	-1 
	-1 
	I I 
	0 
	0 
	3 0.25 0.5 0.75 
	
	-1 
	none F F 1 F 0 } I I #
-315 pcurve $-1 -1 -1 $-1 0 forward { exppc nubs 1 open 2 
	-1 1 -0 1 
	1 0.013855700000000002 
	0 0.013855699999999999 
	0.001 
	-1 
	spline forward { ref 49 } I I I I 
	} 0 0 #
-316 pcurve $-1 -1 -1 $-1 0 forward { exppc nubs 1 open 2 
	0 1 1 1 
	0 0.0012699999999999994 
	1 0.0012699999999999994 
	0.001 
	-1 
	spline forward { ref 49 } I I I I 
	} 0 0 #
-317 point $-1 -1 -1 $-1 -6.2928500000000005 0.95250000000000024 0.63500000000000012 #
-318 intcurve-curve $-1 -1 -1 $-1 forward { exactcur full nurbs 2 open 2 
	0 2 1 2 
	6.2928500000000005 0.31750000000000017 0 1 
	6.2928500000000058 0.95250000000000012 2.1684043452738913e-016 2.333333333333329 
	6.2928500000000032 0.95250000000000024 0.63500000000000012 1 
	0 
	null_surface 
	null_surface 
	nullbs 
	nullbs 
	-1 
	-1 
	I I 
	0 
	0 
	0 
	
	-1 
	none F F 1 F 0 } I I #
-319 integer_attrib-name_attrib-gen-attrib $-1 -1 $-1 $-1 $285 2 1 2 1 1 1 1 1 1 1 1 1 1 1 0 1 1 1 @7 Fillet1 0 #
-320 spline-surface $-1 -1 -1 $-1 forward { ref 26 } I I I I #
-321 intcurve-curve $-1 -1 -1 $-1 forward { exactcur full nurbs 2 open 2 
	0 2 1 2 
	6.2928499999999978 0.95250000000000024 14.4907 1 
	6.2928499999999987 0.95250000000000012 15.1257 2.3333333333333304 
	6.2928500000000005 0.31750000000000017 15.1257 1 
	0 
	null_surface 
	null_surface 
	nullbs 
	nullbs 
	-1 
	-1 
	I I 
	0 
	0 
	0 
	
	-1 
	none F F 1 F 0 } I I #
-322 integer_attrib-name_attrib-gen-attrib $-1 -1 $-1 $-1 $296 2 1 2 1 1 1 1 1 1 1 1 1 1 1 0 1 1 1 @7 Fillet1 0 #
-323 spline-surface $-1 -1 -1 $-1 forward { ref 49 } I I I I #
-324 intcurve-curve $-1 -1 -1 $-1 forward { exactcur full nurbs 2 open 2 
	0 2 1 2 
	-6.2928500000000005 0.31750000000000017 0 1 
	-6.2928500000000014 0.95250000000000012 1.0842021724855044e-016 2.3333333333333304 
	-6.2928500000000005 0.95250000000000024 0.63500000000000012 1 
	0 
	null_surface 
	null_surface 
	nullbs 
	nullbs 
	-1 
	-1 
	I I 
	0 
	0 
	0 
	
	-1 
	none F F 1 F 0 } I I #
End-of-ACIS-data 